<mxfile host="app.diagrams.net" modified="2023-01-14T04:09:42.260Z" agent="5.0 (Windows NT 10.0; Win64; x64) AppleWebKit/537.36 (KHTML, like Gecko) Chrome/109.0.0.0 Safari/537.36" etag="kRdQN0z8YvIBuu8YRW1y" version="20.8.5" type="github">
  <diagram id="C5RBs43oDa-KdzZeNtuy" name="Page-1">
    <mxGraphModel dx="1050" dy="549" grid="1" gridSize="12" guides="1" tooltips="1" connect="1" arrows="1" fold="1" page="1" pageScale="1" pageWidth="827" pageHeight="1169" math="0" shadow="0">
      <root>
        <mxCell id="WIyWlLk6GJQsqaUBKTNV-0" />
        <mxCell id="WIyWlLk6GJQsqaUBKTNV-1" parent="WIyWlLk6GJQsqaUBKTNV-0" />
        <mxCell id="S_67TMPTF_3B2Evn3eNK-10" value="MissionManager" style="text;strokeColor=none;fillColor=none;html=1;fontSize=24;fontStyle=1;verticalAlign=middle;align=left;" vertex="1" parent="WIyWlLk6GJQsqaUBKTNV-1">
          <mxGeometry x="10" y="410" width="100" height="40" as="geometry" />
        </mxCell>
        <mxCell id="S_67TMPTF_3B2Evn3eNK-11" value="&lt;ul&gt;&lt;li style=&quot;&quot;&gt;&lt;font style=&quot;font-size: 16px;&quot;&gt;シングルトンクラス&lt;/font&gt;&lt;/li&gt;&lt;li style=&quot;&quot;&gt;&lt;font style=&quot;font-size: 16px;&quot;&gt;ゲーム内に存在するミッションを全て格納する(MissionList)&lt;/font&gt;&lt;/li&gt;&lt;li style=&quot;&quot;&gt;&lt;span style=&quot;font-size: 16px;&quot;&gt;idをもとにMissionを有効化するクラス(StartMission)&lt;/span&gt;&lt;/li&gt;&lt;li style=&quot;&quot;&gt;&lt;span style=&quot;font-size: 16px;&quot;&gt;idをもとにMissionをクリアするクラス(ClearMission)&lt;/span&gt;&lt;/li&gt;&lt;/ul&gt;" style="text;strokeColor=none;fillColor=none;html=1;whiteSpace=wrap;verticalAlign=top;overflow=hidden;fontSize=24;align=left;labelPosition=center;verticalLabelPosition=middle;horizontal=1;" vertex="1" parent="WIyWlLk6GJQsqaUBKTNV-1">
          <mxGeometry y="420" width="660" height="144" as="geometry" />
        </mxCell>
        <mxCell id="S_67TMPTF_3B2Evn3eNK-12" value="MissionManager" style="swimlane;fontStyle=0;childLayout=stackLayout;horizontal=1;startSize=30;horizontalStack=0;resizeParent=1;resizeParentMax=0;resizeLast=0;collapsible=1;marginBottom=0;whiteSpace=wrap;html=1;strokeColor=#8F8F8F;fontSize=16;" vertex="1" parent="WIyWlLk6GJQsqaUBKTNV-1">
          <mxGeometry x="344" y="20" width="140" height="120" as="geometry" />
        </mxCell>
        <mxCell id="S_67TMPTF_3B2Evn3eNK-13" value="MissionList" style="text;strokeColor=#4A4A4A;fillColor=none;align=left;verticalAlign=middle;spacingLeft=4;spacingRight=4;overflow=hidden;points=[[0,0.5],[1,0.5]];portConstraint=eastwest;rotatable=0;whiteSpace=wrap;html=1;fontSize=16;" vertex="1" parent="S_67TMPTF_3B2Evn3eNK-12">
          <mxGeometry y="30" width="140" height="30" as="geometry" />
        </mxCell>
        <mxCell id="S_67TMPTF_3B2Evn3eNK-14" value="StartMission(int id)" style="text;strokeColor=none;fillColor=none;align=left;verticalAlign=middle;spacingLeft=4;spacingRight=4;overflow=hidden;points=[[0,0.5],[1,0.5]];portConstraint=eastwest;rotatable=0;whiteSpace=wrap;html=1;fontSize=14;" vertex="1" parent="S_67TMPTF_3B2Evn3eNK-12">
          <mxGeometry y="60" width="140" height="30" as="geometry" />
        </mxCell>
        <mxCell id="S_67TMPTF_3B2Evn3eNK-15" value="ClearMission(int id)" style="text;strokeColor=none;fillColor=none;align=left;verticalAlign=middle;spacingLeft=4;spacingRight=4;overflow=hidden;points=[[0,0.5],[1,0.5]];portConstraint=eastwest;rotatable=0;whiteSpace=wrap;html=1;fontSize=14;" vertex="1" parent="S_67TMPTF_3B2Evn3eNK-12">
          <mxGeometry y="90" width="140" height="30" as="geometry" />
        </mxCell>
        <mxCell id="S_67TMPTF_3B2Evn3eNK-16" value="Mission" style="swimlane;fontStyle=0;childLayout=stackLayout;horizontal=1;startSize=30;horizontalStack=0;resizeParent=1;resizeParentMax=0;resizeLast=0;collapsible=1;marginBottom=0;whiteSpace=wrap;html=1;strokeColor=#8F8F8F;fontSize=14;" vertex="1" parent="WIyWlLk6GJQsqaUBKTNV-1">
          <mxGeometry x="108" y="20" width="140" height="90" as="geometry" />
        </mxCell>
        <mxCell id="S_67TMPTF_3B2Evn3eNK-17" value="IsClear" style="text;strokeColor=#4F4F4F;fillColor=none;align=left;verticalAlign=middle;spacingLeft=4;spacingRight=4;overflow=hidden;points=[[0,0.5],[1,0.5]];portConstraint=eastwest;rotatable=0;whiteSpace=wrap;html=1;fontSize=14;" vertex="1" parent="S_67TMPTF_3B2Evn3eNK-16">
          <mxGeometry y="30" width="140" height="30" as="geometry" />
        </mxCell>
        <mxCell id="S_67TMPTF_3B2Evn3eNK-18" value="Text" style="text;strokeColor=none;fillColor=none;align=left;verticalAlign=middle;spacingLeft=4;spacingRight=4;overflow=hidden;points=[[0,0.5],[1,0.5]];portConstraint=eastwest;rotatable=0;whiteSpace=wrap;html=1;fontSize=14;" vertex="1" parent="S_67TMPTF_3B2Evn3eNK-16">
          <mxGeometry y="60" width="140" height="30" as="geometry" />
        </mxCell>
        <mxCell id="S_67TMPTF_3B2Evn3eNK-20" value="" style="endArrow=none;html=1;rounded=0;fontSize=14;exitX=1;exitY=0.5;exitDx=0;exitDy=0;entryX=0;entryY=0.5;entryDx=0;entryDy=0;" edge="1" parent="WIyWlLk6GJQsqaUBKTNV-1" source="S_67TMPTF_3B2Evn3eNK-17" target="S_67TMPTF_3B2Evn3eNK-13">
          <mxGeometry width="50" height="50" relative="1" as="geometry">
            <mxPoint x="384" y="302" as="sourcePoint" />
            <mxPoint x="434" y="252" as="targetPoint" />
          </mxGeometry>
        </mxCell>
      </root>
    </mxGraphModel>
  </diagram>
</mxfile>
